<svg width="541" height="52" viewBox="0 0 541 52" fill="none" xmlns="http://www.w3.org/2000/svg">
<circle cx="270" cy="26" r="22.5" fill="#DCC6A4" stroke="#5B7B7A" stroke-width="3"/>
<path fill-rule="evenodd" clip-rule="evenodd" d="M233.267 0C228.06 7.34245 225 16.3138 225 26C225 35.6862 228.06 44.6575 233.267 52H229.645C224.807 44.5075 222 35.5816 222 26C222 16.4184 224.807 7.49247 229.645 0L233.267 0Z" fill="#DCC6A4"/>
<path fill-rule="evenodd" clip-rule="evenodd" d="M229.645 0L3 0H0V3V49V52H3H229.645C229.014 51.0238 228.419 50.0232 227.859 49H3V3H227.859C228.419 1.97681 229.014 0.976238 229.645 0Z" fill="#DCC6A4"/>
<path fill-rule="evenodd" clip-rule="evenodd" d="M307 52C312.206 44.6575 315.267 35.6862 315.267 26C315.267 16.3138 312.206 7.34246 307 0H310.622C315.459 7.49247 318.267 16.4184 318.267 26C318.267 35.5816 315.459 44.5075 310.622 52H307Z" fill="#DCC6A4"/>
<path fill-rule="evenodd" clip-rule="evenodd" d="M310.622 52L537.267 52H540.267V49V3V0H537.267L310.622 0C311.252 0.976238 311.848 1.97681 312.408 3L537.267 3V49L312.408 49C311.848 50.0232 311.252 51.0238 310.622 52Z" fill="#DCC6A4"/>
</svg>
